# Blender 4.4.1
# www.blender.org
mtllib plane.mtl
o Plane
v 0.000000 -1.414214 0.000000
v -1.414214 0.000000 0.000000
v 1.414214 0.000000 0.000000
v 0.000000 1.414214 -0.000000
v 0.000000 -91.414215 0.000000
v -1.414214 -90.000000 0.000000
v 1.414214 -90.000000 0.000000
v 0.000000 -88.585785 -0.000000
vn -0.0000 -0.0000 -1.0000
vt 1.000000 0.000000
vt 0.000000 1.000000
vt 0.000000 0.000000
vt 1.000000 1.000000
s 0
usemtl Material.001
f 2/1/1 3/2/1 1/3/1
f 6/1/1 7/2/1 5/3/1
f 2/1/1 4/4/1 3/2/1
f 6/1/1 8/4/1 7/2/1
